<?xml version="1.0" encoding="utf-8"?>
<!-- Generator: Adobe Illustrator 27.2.0, SVG Export Plug-In . SVG Version: 6.00 Build 0)  -->
<svg version="1.1" id="Layer_1" xmlns="http://www.w3.org/2000/svg" xmlns:xlink="http://www.w3.org/1999/xlink" x="0px" y="0px"
	 viewBox="0 0 162.5 36.5" style="enable-background:new 0 0 162.5 36.5;" xml:space="preserve">
<style type="text/css">
	.st0{fill:#C40D3C;}
	.st1{fill:#939598;}
</style>
<g>
	<g>
		<path class="st0" d="M81.68,3.06v4.66c0,0,7.36,0,8.37,0c0,11.71,0,11.62,0,15.84h6.11c0-15.01,0-15,0-15.84c1.02,0,7.6,0,7.6,0
			V3.06H81.68z"/>
		<path class="st0" d="M47.16,3.06h-5.55l-9.51,17.82V3.06L30,3.05c-4-0.04-7.45-0.07-8.78,3.07c0,0-3.79,9.32-3.96,10.3
			c-0.18-0.98-4.17-10.3-4.17-10.3c-0.82-1.98-2.92-3.07-5.91-3.07H2.21v20.5h6.13c0,0-0.02-10.14-0.03-13.76
			c1.62,3.51,5.93,13.76,5.93,13.76h5.99c0,0,4.11-10.34,5.75-13.77c0,3.55,0,13.77,0,13.77h11.57l1.95-4
			c0.49,0.35,2.27,0.71,3.22,0.71c0,0,5.45,0,6.18,0c0.25,0.47,1.77,3.29,1.77,3.29h6.81L47.16,3.06z M43.59,16.09
			c-0.96,0-1.91-0.07-2.25-0.45L44.2,9.2c0.22,0.45,2.65,5.98,3.08,6.89C46.13,16.09,43.59,16.09,43.59,16.09z"/>
		<path class="st0" d="M105.29,3.06v20.5h20.05V18.9c0,0-12.81,0-13.9,0c0-0.63,0-3.2,0-3.91c1.14,0.43,2.7,0.41,2.7,0.41h10.5
			v-4.13h-10.46c-0.9,0-2.21-0.08-2.75-0.41c0-3.02,0-3.14,0-3.14h13.67V3.06H105.29z"/>
		<path class="st0" d="M136.2,17.15c-0.53-0.37-1.32-1.17-2.38-1.17l-0.62-0.03c0,0.97,0,7.65,0,7.65h-6.66V3.04h6.67l0.01,8.02
			h0.59c0.97,0,1.34-0.59,2.75-1.61l7.12-6.41h8.82c0,0-12.04,9.34-12.04,9.34c0,0-1.25,0.87-2.12,1.06
			c0.88,0.17,1.8,0.76,1.78,0.74l12.81,9.42l-8.73,0L136.2,17.15z"/>
		<path class="st0" d="M159.6,4.69v3.2c0,0.67-0.56,1.2-1.25,1.2h-3.24c-0.69,0-1.25-0.54-1.25-1.2v-3.2c0-0.67,0.56-1.2,1.25-1.2
			h3.24C159.05,3.49,159.6,4.02,159.6,4.69z M158.36,9.52c0.92,0,1.68-0.73,1.68-1.63v-3.2c0-0.9-0.75-1.62-1.68-1.62h-3.24
			c-0.92,0-1.67,0.72-1.67,1.62v3.2c0,0.9,0.75,1.63,1.67,1.63H158.36z M157.87,6.46c0.23-0.15,0.37-0.37,0.37-0.64V5.3
			c0-0.59-0.52-0.86-0.85-0.86h-2.04v3.71h0.43V6.54c0.1,0.08,0.22,0.1,0.32,0.1h1.2c0.38,0.06,0.48,0.34,0.48,0.43v1.08h0.42V7.1
			C158.19,6.94,158.11,6.65,157.87,6.46z M157.34,4.83c0.19,0,0.49,0.17,0.49,0.47v0.52c0,0.18-0.26,0.42-0.53,0.42h-1.2
			c-0.19,0-0.32-0.12-0.32-0.21V5.44V4.83H157.34z"/>
		<path class="st0" d="M83.86,11.4H66.99v3.88c0,0,6.15,0,7.14,0c0,0.43,0,2.24,0,2.24c0,0.43-0.38,1.57-2.15,1.57h-7.22
			c-1.2,0-2.11-0.68-2.11-1.57V9.46c0-1.27,1.42-1.79,2.18-1.79h15.38l0.02-4.63H64.07c-4.9,0-8.2,3.34-8.2,6.45v7.65
			c0,4.09,3.26,6.62,8.5,6.62h7.27c5.25,0,8.53-2.53,8.53-6.31v-2.15h3.67V11.4z"/>
	</g>
</g>
<g>
	<path class="st1" d="M8.88,33.11c-0.16,0.13-0.37,0.22-0.63,0.28c-0.26,0.06-0.56,0.09-0.92,0.09H4.23c-0.63,0-1.12-0.14-1.46-0.43
		c-0.41-0.32-0.61-0.79-0.61-1.4c0-0.06,0.03-0.09,0.08-0.09h0.63c0.06,0,0.09,0.03,0.09,0.09c0.01,0.2,0.04,0.37,0.11,0.51
		c0.07,0.14,0.18,0.25,0.33,0.32c0.11,0.05,0.25,0.1,0.42,0.13c0.17,0.03,0.38,0.05,0.61,0.05H7.3c0.23,0,0.42-0.02,0.57-0.05
		c0.15-0.03,0.28-0.08,0.38-0.14c0.13-0.08,0.23-0.19,0.28-0.33c0.05-0.14,0.08-0.31,0.08-0.5c0-0.41-0.18-0.68-0.55-0.83
		c-0.15-0.07-0.34-0.11-0.58-0.14c-0.24-0.03-0.52-0.04-0.84-0.04c-0.07,0-0.15,0-0.24,0c-0.09,0-0.19,0-0.31,0.01H5.93H5.75
		c-0.01,0-0.03,0-0.05,0c-0.02,0-0.04,0.01-0.07,0.01H5.5c-0.14,0.01-0.26,0.01-0.37,0.01c-0.11,0-0.19,0-0.26,0
		c-0.85,0-1.49-0.1-1.91-0.3c-0.57-0.27-0.85-0.76-0.85-1.48c0-1.16,0.65-1.73,1.95-1.73h3.17c1.43,0,2.14,0.61,2.14,1.83
		c0,0.05-0.02,0.08-0.07,0.08H8.64c-0.05,0-0.08-0.03-0.08-0.08c-0.01-0.19-0.04-0.36-0.11-0.51c-0.07-0.14-0.18-0.25-0.33-0.33
		c-0.23-0.11-0.57-0.17-1.02-0.17H4.04c-0.21,0-0.38,0.02-0.52,0.05c-0.14,0.03-0.24,0.08-0.33,0.13c-0.19,0.12-0.28,0.36-0.28,0.73
		c0,0.37,0.18,0.63,0.55,0.77c0.31,0.13,0.78,0.19,1.41,0.19c0.07,0,0.18,0,0.31,0c0.14,0,0.31,0,0.5-0.01c0.02,0,0.04,0,0.07,0
		c0.02,0,0.05-0.01,0.08-0.01h0.13c0.12-0.01,0.23-0.01,0.32-0.01c0.09,0,0.17,0,0.22,0c0.45,0,0.85,0.03,1.18,0.08
		c0.33,0.05,0.61,0.13,0.84,0.23c0.59,0.29,0.89,0.81,0.89,1.53C9.42,32.32,9.24,32.81,8.88,33.11z"/>
	<path class="st1" d="M10.54,33.47c-0.06,0-0.09-0.03-0.09-0.09v-6.15c0-0.07,0.03-0.1,0.09-0.1h5.35c0.05,0,0.08,0.03,0.08,0.1
		v0.63c0,0.07-0.03,0.1-0.08,0.1h-4.63v1.83h4.48c0.05,0,0.08,0.03,0.08,0.1v0.63c0,0.07-0.03,0.1-0.08,0.1h-4.48v2.02h4.63
		c0.05,0,0.08,0.03,0.08,0.09v0.64c0,0.06-0.03,0.09-0.08,0.09H10.54z"/>
	<path class="st1" d="M23.97,31.61c0.01,0.01,0.01,0.02,0.01,0.04c0,0.67-0.21,1.16-0.64,1.47c-0.35,0.23-0.89,0.35-1.61,0.35h-2.27
		c-0.44,0-0.82-0.03-1.14-0.09c-0.32-0.06-0.58-0.15-0.79-0.28c-0.19-0.13-0.34-0.29-0.47-0.48c-0.12-0.19-0.21-0.42-0.27-0.7
		c-0.06-0.33-0.09-0.98-0.09-1.95c0-1.14,0.21-1.91,0.62-2.31h-0.01c0.41-0.4,1.17-0.6,2.29-0.6h2.1c0.75,0,1.31,0.15,1.69,0.45
		c0.38,0.3,0.57,0.75,0.57,1.36v0.02c0,0.06-0.03,0.09-0.08,0.09h-0.63c-0.06,0-0.09-0.03-0.09-0.09v-0.02
		c0-0.66-0.49-0.99-1.45-0.99h-2.16c-0.37,0-0.67,0.02-0.92,0.07c-0.24,0.05-0.44,0.11-0.58,0.18c-0.25,0.15-0.42,0.44-0.49,0.85
		c-0.03,0.11-0.04,0.3-0.05,0.57c-0.01,0.26-0.01,0.6-0.01,1.01c0,0.44,0.03,0.8,0.08,1.09c0.05,0.28,0.12,0.49,0.22,0.61
		c0.23,0.27,0.76,0.4,1.58,0.4h2.34c0.47,0,0.82-0.06,1.05-0.17c0.27-0.13,0.41-0.4,0.41-0.81v-0.03c0-0.06,0.03-0.09,0.09-0.09
		h0.63h0.01c0.01,0,0.01,0,0.01,0.01L23.97,31.61z"/>
	<path class="st1" d="M31.94,32.44c-0.19,0.41-0.51,0.69-0.98,0.83c0,0.01,0,0.01-0.01,0.01c-0.19,0.06-0.44,0.11-0.75,0.14
		c-0.31,0.03-0.69,0.05-1.13,0.05h-0.94c-0.44,0-0.82-0.02-1.13-0.05c-0.31-0.03-0.56-0.08-0.76-0.14c-0.01,0-0.01,0-0.02-0.01
		c-0.24-0.07-0.44-0.18-0.6-0.32c-0.16-0.14-0.29-0.31-0.39-0.51c-0.09-0.2-0.16-0.46-0.21-0.77c-0.04-0.31-0.07-0.68-0.07-1.1
		v-3.34c0-0.07,0.03-0.1,0.08-0.1h0.63c0.06,0,0.09,0.03,0.09,0.1v3.34c0,0.68,0.06,1.17,0.19,1.46c0.12,0.27,0.34,0.44,0.66,0.51
		c0.26,0.07,0.76,0.1,1.51,0.1h0.94c0.75,0,1.25-0.03,1.51-0.1c0.32-0.07,0.53-0.24,0.63-0.51c0.07-0.14,0.12-0.33,0.15-0.58
		c0.02-0.24,0.04-0.54,0.04-0.89v-3.34c0-0.07,0.03-0.1,0.1-0.1h0.62c0.06,0,0.09,0.03,0.09,0.1v3.34
		C32.21,31.41,32.12,32.04,31.94,32.44z"/>
	<path class="st1" d="M39.5,33.47c-0.06,0-0.09-0.03-0.09-0.09c0-0.17,0.01-0.44,0.03-0.79c0.01-0.17,0.02-0.32,0.03-0.44
		c0.01-0.12,0.01-0.21,0.01-0.28c0-0.22-0.02-0.41-0.06-0.56c-0.04-0.15-0.09-0.27-0.16-0.36c-0.1-0.11-0.24-0.2-0.42-0.25
		c-0.18-0.05-0.4-0.07-0.66-0.07h-4.07v2.76c0,0.06-0.03,0.09-0.09,0.09h-0.64c-0.06,0-0.09-0.03-0.09-0.09v-6.15
		c0-0.07,0.03-0.1,0.09-0.1h4.45c1.42,0,2.13,0.56,2.13,1.69c0,0.29-0.04,0.53-0.11,0.74c-0.07,0.2-0.19,0.36-0.34,0.46
		c0.24,0.11,0.43,0.3,0.57,0.59c0.06,0.13,0.1,0.27,0.12,0.44c0.02,0.17,0.03,0.34,0.03,0.53v1.8c0,0.06-0.02,0.09-0.07,0.09H39.5z
		 M38,28h-3.89v1.75h3.85c0.8,0,1.19-0.3,1.19-0.89C39.16,28.29,38.77,28,38,28z"/>
	<path class="st1" d="M41.29,33.47c-0.05,0-0.08-0.03-0.08-0.09v-6.15c0-0.07,0.03-0.1,0.08-0.1h0.49c0.05,0,0.07,0.03,0.07,0.1
		v6.15c0,0.06-0.02,0.09-0.07,0.09H41.29z"/>
	<path class="st1" d="M46.3,27.96v5.42c0,0.06-0.03,0.09-0.09,0.09h-0.63c-0.05,0-0.08-0.03-0.08-0.09v-5.42h-2.86
		c-0.07,0-0.1-0.03-0.1-0.1v-0.63c0-0.07,0.03-0.1,0.1-0.1h6.52c0.07,0,0.1,0.03,0.1,0.1v0.63c0,0.07-0.03,0.1-0.1,0.1H46.3z"/>
	<path class="st1" d="M53.64,30.49v2.89c0,0.06-0.03,0.09-0.09,0.09h-0.68c-0.05,0-0.08-0.03-0.08-0.09v-2.89l-3.14-3.21
		c-0.01-0.01-0.02-0.02-0.02-0.03c0-0.01,0-0.02,0-0.03c0-0.07,0.03-0.1,0.1-0.1h0.86c0.01,0,0.03,0,0.04,0
		c0.01,0,0.02,0.01,0.03,0.02l2.55,2.61l2.55-2.61c0.01-0.01,0.04-0.02,0.07-0.02h0.89c0.05,0,0.08,0.03,0.08,0.1
		c0,0.01,0,0.02,0,0.03c0,0.01-0.01,0.02-0.02,0.03L53.64,30.49z"/>
	<path class="st1" d="M61.09,27.96v1.83h4.48c0.05,0,0.08,0.03,0.08,0.1v0.63c0,0.07-0.03,0.1-0.08,0.1h-4.48v2.76
		c0,0.06-0.03,0.09-0.09,0.09h-0.63c-0.06,0-0.09-0.03-0.09-0.09v-6.15c0-0.07,0.03-0.1,0.09-0.1h5.35c0.05,0,0.08,0.03,0.08,0.1
		v0.63c0,0.07-0.03,0.1-0.08,0.1H61.09z"/>
	<path class="st1" d="M72.6,33.47c-0.06,0-0.09-0.03-0.09-0.09c0-0.17,0.01-0.44,0.03-0.79c0.01-0.17,0.02-0.32,0.03-0.44
		c0.01-0.12,0.01-0.21,0.01-0.28c0-0.22-0.02-0.41-0.06-0.56c-0.04-0.15-0.09-0.27-0.16-0.36c-0.1-0.11-0.24-0.2-0.41-0.25
		c-0.18-0.05-0.4-0.07-0.66-0.07h-4.07v2.76c0,0.06-0.03,0.09-0.09,0.09h-0.64c-0.06,0-0.09-0.03-0.09-0.09v-6.15
		c0-0.07,0.03-0.1,0.09-0.1h4.45c1.42,0,2.14,0.56,2.14,1.69c0,0.29-0.04,0.53-0.11,0.74c-0.07,0.2-0.19,0.36-0.34,0.46
		c0.24,0.11,0.43,0.3,0.57,0.59c0.06,0.13,0.1,0.27,0.13,0.44c0.02,0.17,0.04,0.34,0.04,0.53v1.8c0,0.06-0.02,0.09-0.07,0.09H72.6z
		 M71.11,28h-3.89v1.75h3.85c0.8,0,1.19-0.3,1.19-0.89C72.26,28.29,71.88,28,71.11,28z"/>
	<path class="st1" d="M81.56,31.66c-0.04,0.31-0.11,0.58-0.2,0.78c-0.1,0.2-0.24,0.37-0.4,0.52c-0.17,0.14-0.36,0.25-0.59,0.32v0.01
		c-0.19,0.06-0.44,0.11-0.75,0.14c-0.31,0.03-0.68,0.05-1.12,0.05h-0.97c-1.02,0-1.72-0.09-2.11-0.28
		c-0.44-0.19-0.74-0.55-0.89-1.07c-0.05-0.19-0.09-0.46-0.12-0.81c-0.02-0.35-0.03-0.78-0.03-1.29c0-0.42,0.02-0.79,0.06-1.1
		c0.04-0.31,0.1-0.57,0.19-0.77c0.1-0.2,0.23-0.37,0.4-0.52c0.16-0.14,0.36-0.26,0.61-0.34h0.01c0.37-0.13,1.01-0.19,1.89-0.19h0.97
		c0.98,0,1.68,0.1,2.1,0.29c0.21,0.09,0.4,0.23,0.55,0.41c0.15,0.18,0.26,0.4,0.34,0.67c0.04,0.19,0.07,0.45,0.1,0.8
		c0.03,0.35,0.04,0.78,0.04,1.29C81.62,30.98,81.6,31.34,81.56,31.66z M80.82,30.01c0-0.34-0.01-0.63-0.04-0.88
		c-0.03-0.25-0.08-0.44-0.15-0.58c-0.09-0.27-0.3-0.45-0.63-0.52c-0.26-0.07-0.76-0.1-1.51-0.1h-0.96c-0.75,0-1.26,0.03-1.52,0.1
		c-0.32,0.07-0.54,0.25-0.65,0.52c-0.13,0.29-0.19,0.78-0.19,1.46v0.55c0,0.68,0.06,1.17,0.19,1.46c0.12,0.27,0.34,0.44,0.66,0.51
		c0.26,0.07,0.77,0.1,1.51,0.1h0.96c0.74,0,1.24-0.03,1.5-0.1c0.33-0.07,0.54-0.24,0.64-0.51c0.07-0.14,0.12-0.33,0.15-0.58
		c0.03-0.25,0.04-0.54,0.04-0.88V30.01z"/>
	<path class="st1" d="M91.02,33.47c-0.06,0-0.09-0.03-0.09-0.09V27.8h-0.19l-3.27,5.65c-0.01,0.01-0.04,0.02-0.07,0.02h-0.43
		c-0.01,0-0.03,0-0.04-0.01l-3.24-5.66h-0.18v5.58c0,0.06-0.03,0.09-0.09,0.09h-0.65c-0.06,0-0.09-0.03-0.09-0.09v-6.15
		c0-0.07,0.03-0.1,0.09-0.1h1.44c0.02,0,0.04,0,0.05,0.01l2.94,5.18l3.03-5.17c0.01-0.01,0.04-0.02,0.07-0.02h1.36
		c0.05,0,0.07,0.03,0.07,0.1v6.15c0,0.06-0.02,0.09-0.07,0.09H91.02z"/>
	<path class="st1" d="M98.95,27.96v5.42c0,0.06-0.03,0.09-0.09,0.09h-0.63c-0.05,0-0.08-0.03-0.08-0.09v-5.42H95.3
		c-0.07,0-0.1-0.03-0.1-0.1v-0.63c0-0.07,0.03-0.1,0.1-0.1h6.52c0.07,0,0.1,0.03,0.1,0.1v0.63c0,0.07-0.03,0.1-0.1,0.1H98.95z"/>
	<path class="st1" d="M108.72,33.47c-0.05,0-0.08-0.03-0.08-0.09v-2.76h-5.2v2.76c0,0.06-0.03,0.09-0.09,0.09h-0.63
		c-0.06,0-0.09-0.03-0.09-0.09v-6.15c0-0.07,0.03-0.1,0.09-0.1h0.63c0.06,0,0.09,0.03,0.09,0.1v2.57h5.2v-2.57
		c0-0.07,0.03-0.1,0.08-0.1h0.64c0.05,0,0.08,0.03,0.08,0.1v6.15c0,0.06-0.03,0.09-0.08,0.09H108.72z"/>
	<path class="st1" d="M110.65,33.47c-0.06,0-0.09-0.03-0.09-0.09v-6.15c0-0.07,0.03-0.1,0.09-0.1H116c0.05,0,0.08,0.03,0.08,0.1
		v0.63c0,0.07-0.03,0.1-0.08,0.1h-4.63v1.83h4.48c0.05,0,0.08,0.03,0.08,0.1v0.63c0,0.07-0.03,0.1-0.08,0.1h-4.48v2.02H116
		c0.05,0,0.08,0.03,0.08,0.09v0.64c0,0.06-0.03,0.09-0.08,0.09H110.65z"/>
	<path class="st1" d="M119.58,33.47c-0.05,0-0.08-0.03-0.08-0.09v-6.15c0-0.07,0.03-0.1,0.08-0.1h0.49c0.05,0,0.07,0.03,0.07,0.1
		v6.15c0,0.06-0.02,0.09-0.07,0.09H119.58z"/>
	<path class="st1" d="M127.09,33.47c-0.03,0-0.05-0.01-0.06-0.03l-4.8-5.64h-0.2v5.58c0,0.06-0.03,0.09-0.09,0.09h-0.63
		c-0.06,0-0.09-0.03-0.09-0.09v-6.15c0-0.07,0.03-0.1,0.09-0.1h1.39c0.02,0,0.04,0.01,0.07,0.04l4.49,5.34v-5.28
		c0-0.07,0.03-0.1,0.1-0.1h0.63c0.06,0,0.09,0.03,0.09,0.1v6.15c0,0.06-0.03,0.09-0.09,0.09H127.09z"/>
	<path class="st1" d="M135.9,33.11c-0.16,0.13-0.37,0.22-0.63,0.28c-0.26,0.06-0.56,0.09-0.92,0.09h-3.11
		c-0.63,0-1.12-0.14-1.46-0.43c-0.41-0.32-0.61-0.79-0.61-1.4c0-0.06,0.03-0.09,0.08-0.09h0.63c0.06,0,0.09,0.03,0.09,0.09
		c0.01,0.2,0.04,0.37,0.11,0.51c0.07,0.14,0.18,0.25,0.33,0.32c0.11,0.05,0.25,0.1,0.42,0.13c0.17,0.03,0.38,0.05,0.61,0.05h2.88
		c0.23,0,0.42-0.02,0.57-0.05c0.15-0.03,0.28-0.08,0.38-0.14c0.13-0.08,0.23-0.19,0.28-0.33c0.05-0.14,0.08-0.31,0.08-0.5
		c0-0.41-0.18-0.68-0.55-0.83c-0.15-0.07-0.34-0.11-0.58-0.14c-0.24-0.03-0.52-0.04-0.84-0.04c-0.07,0-0.15,0-0.24,0
		c-0.09,0-0.19,0-0.31,0.01h-0.16h-0.18c-0.01,0-0.03,0-0.05,0c-0.02,0-0.04,0.01-0.07,0.01h-0.13c-0.14,0.01-0.27,0.01-0.37,0.01
		c-0.11,0-0.19,0-0.26,0c-0.85,0-1.49-0.1-1.91-0.3c-0.57-0.27-0.85-0.76-0.85-1.48c0-1.16,0.65-1.73,1.95-1.73h3.17
		c1.43,0,2.14,0.61,2.14,1.83c0,0.05-0.02,0.08-0.07,0.08h-0.65c-0.05,0-0.08-0.03-0.08-0.08c-0.01-0.19-0.04-0.36-0.11-0.51
		c-0.07-0.14-0.18-0.25-0.33-0.33c-0.23-0.11-0.57-0.17-1.02-0.17h-3.07c-0.21,0-0.38,0.02-0.52,0.05
		c-0.14,0.03-0.25,0.08-0.33,0.13c-0.19,0.12-0.28,0.36-0.28,0.73c0,0.37,0.18,0.63,0.55,0.77c0.31,0.13,0.78,0.19,1.41,0.19
		c0.07,0,0.18,0,0.31,0c0.14,0,0.31,0,0.5-0.01c0.02,0,0.04,0,0.07,0c0.02,0,0.05-0.01,0.08-0.01h0.13
		c0.12-0.01,0.23-0.01,0.32-0.01c0.09,0,0.17,0,0.22,0c0.45,0,0.85,0.03,1.18,0.08c0.33,0.05,0.61,0.13,0.84,0.23
		c0.59,0.29,0.89,0.81,0.89,1.53C136.44,32.32,136.26,32.81,135.9,33.11z"/>
	<path class="st1" d="M137.46,33.47c-0.05,0-0.08-0.03-0.08-0.09v-6.15c0-0.07,0.03-0.1,0.08-0.1h0.49c0.05,0,0.07,0.03,0.07,0.1
		v6.15c0,0.06-0.03,0.09-0.07,0.09H137.46z"/>
	<path class="st1" d="M146,31.99c-0.08,0.38-0.2,0.66-0.38,0.86c-0.18,0.2-0.46,0.35-0.83,0.46c-0.37,0.11-0.84,0.16-1.41,0.16
		h-4.21c-0.06,0-0.09-0.03-0.09-0.09v-6.15c0-0.07,0.03-0.1,0.09-0.1h4.03c0.86,0,1.51,0.12,1.93,0.35
		c0.44,0.23,0.72,0.61,0.85,1.13c0.03,0.19,0.06,0.45,0.09,0.77c0.03,0.32,0.04,0.71,0.04,1.18C146.12,31.14,146.08,31.61,146,31.99
		z M145.32,30.04c0-0.88-0.13-1.44-0.37-1.69c-0.26-0.26-0.81-0.39-1.65-0.39h-3.4v4.69h3.56c0.63,0,1.06-0.06,1.29-0.17
		c0.25-0.09,0.4-0.28,0.47-0.58c0.04-0.11,0.07-0.28,0.08-0.51c0.01-0.23,0.02-0.5,0.02-0.82V30.04z"/>
	<path class="st1" d="M147.26,33.47c-0.06,0-0.09-0.03-0.09-0.09v-6.15c0-0.07,0.03-0.1,0.09-0.1h5.35c0.05,0,0.08,0.03,0.08,0.1
		v0.63c0,0.07-0.03,0.1-0.08,0.1h-4.63v1.83h4.48c0.05,0,0.08,0.03,0.08,0.1v0.63c0,0.07-0.03,0.1-0.08,0.1h-4.48v2.02h4.63
		c0.05,0,0.08,0.03,0.08,0.09v0.64c0,0.06-0.03,0.09-0.08,0.09H147.26z"/>
</g>
</svg>
